<svg width="570" height="520" xmlns="http://www.w3.org/2000/svg" xml:space="preserve" version="1.1">
  <g id="svg_1" transform="matrix(6.68 0 0 6.68 432.26 690.82)">
   <path id="svg_2" fill-rule=" nonzero" fill="#92c7cf" stroke-miterlimit="4" stroke-linejoin=" miter" stroke-dashoffset="0" stroke-dasharray=" none" stroke=" none" stroke-linecap=" butt" d="m-5.95944,-54.12227c-1.841,-3.282 -6.929,-2.842 -10.165,-2.917c-4.258,-0.099 -9.354,1.929 -12.999,4.263c-0.134,-0.17 -0.304,-0.323 -0.55,-0.414c-5.807,-2.123 -11.773,-3.736 -17.826,-4.969c-2.381,-0.485 -7.965,-1.527 -9.362,1.487c-2.483,5.354 7.499,7.965 11.222,10.799c-2.672,1.091 -5.213,2.23 -7.636,3.889c-0.062,0.041 -0.094,0.093 -0.141,0.139c-2.338,-2.505 -6.496,-6.15 -9.462,-3.762c-0.87,0.699 -0.303,2.063 0.032,2.833c0.332,0.764 1.603,1.678 2.17,2.319c1.849,2.084 -0.323,2.541 -0.735,3.858c-1.46,4.668 3.802,5.386 7.137,5.036c2.424,-0.254 4.783,-1.034 7.127,-1.669c2.253,-0.611 4.561,-1.149 6.863,-1.699c2.98,-0.554 5.947,-1.182 8.892,-1.909c0.996,1.739 2.334,3.202 3.528,4.832c1.11,1.513 2.154,3.024 3.498,4.342c1.66,1.626 4.247,2.467 6.009,0.604c3.059,-3.232 2.062,-10.453 1.172,-14.624c2.062,-1.055 3.989,-2.329 5.541,-3.865c1.229,-0.988 2.483,-1.948 3.644,-3.028c1.063,-0.99 2.853,-2.171 2.778,-3.866c-0.025,-0.542 -0.305,-1.222 -0.737,-1.679z" vector-effect="non-scaling-stroke"/>
  </g>
  <g id="svg_3" transform="matrix(6.68 0 0 6.68 542.93 518.58)">
   <path id="svg_4" fill-rule=" nonzero" fill="#92c7cf" stroke-miterlimit="4" stroke-linejoin=" miter" stroke-dashoffset="0" stroke-dasharray=" none" stroke=" none" stroke-linecap=" butt" d="m-10.60644,-68.62527c-11.444,-10.967 -30.113,-10.83 -43.373,-3.451c-10.395,5.786 -22.669,24.718 -15.236,36.531c0.495,0.787 1.876,0.286 1.551,-0.653c-2.394,-6.862 -1.023,-13.748 2.362,-19.723c0.284,0.708 0.64,1.295 1.056,1.85c1.029,2.055 2.429,3.98 3.523,5.96c0.133,0.243 0.243,0.477 0.362,0.714c0.681,1.92 1.212,3.833 1.218,4.62c0.01,1.742 0.332,4.248 -1.698,5.288c-0.486,0.249 -1.15,0.468 -1.528,0.891c-0.169,0.188 -0.306,0.357 -0.417,0.522c-0.845,0.559 -1.2,2.184 0.195,2.434c3.023,0.54 5.995,1.56 8.961,2.365c1.659,0.451 4.638,1.864 6.027,0.316c0.2,-0.223 0.359,-0.542 0.37,-0.858c0.236,0.217 0.322,0.483 0.173,0.817c-0.437,0.976 0.914,1.828 1.465,0.856c1.179,-2.086 0.378,-3.201 -0.91,-3.839c0.099,-0.436 0.06,-0.927 -0.206,-1.442c-1.702,-3.308 -4.463,-5.932 -6.391,-9.126c3.001,-3.438 11.721,-10.791 12.123,-10.942c4.826,-1.822 13.367,-5.813 11.113,-12.453c-1.485,-4.382 -10.427,-4.907 -15.68,-4.584c11.749,-3.943 25.469,-0.604 34.263,7.836c1.786,1.713 3.381,3.606 4.79,5.617c-0.113,-0.222 -0.441,-0.329 -0.642,-0.118c-0.977,1.034 -1.638,2.126 -1.752,3.6c-0.186,2.384 0.853,5.613 -1.11,7.411c-1.576,1.443 -1.362,3.476 -0.584,5.296c0.771,1.796 1.873,3.462 4.01,2.924c1.77,-0.446 1.254,-2.628 1.197,-4.293c0.093,0.257 0.192,0.512 0.339,0.742c0.24,0.381 0.766,0.489 1.207,0.378c0.181,0.184 0.47,0.247 0.716,0.104c0.751,-0.431 0.661,-1.352 1.204,-1.92c0.632,-0.66 1.155,-0.139 1.46,0.477c0.104,0.649 0.182,1.302 0.245,1.956c-0.108,-0.058 -0.247,-0.06 -0.334,0.046c-0.345,0.416 -0.697,0.377 -1.15,0.559c-0.067,0.027 -0.113,0.08 -0.159,0.129c-0.324,-0.057 -0.445,0.035 -0.963,0.394c-0.37,0.256 -0.509,0.952 0,1.172c2.331,1.008 -0.373,0.982 -1.328,0.868c-1.513,-0.181 -2.97,0.023 -4.446,0.327c-1.755,0.36 -3.728,1.924 -3.847,3.843c-0.123,1.944 0.145,3.146 0.813,5.017c0.164,0.458 0.286,0.906 0.378,1.347c-0.783,2.734 -1.884,5.731 -2.12,8.541c-0.037,0.061 -0.07,0.122 -0.108,0.182c-1.162,1.854 -2.272,4.117 -0.432,5.794c0.618,0.564 1.832,0.026 1.505,-0.876c-0.003,-0.01 -0.005,-0.021 -0.008,-0.032c0.048,0.083 0.082,0.171 0.135,0.254c0.066,0.103 0.144,0.181 0.225,0.254c-3.191,2.485 -6.93,4.184 -11.117,4.638c-1.643,0.179 -1.72,2.695 0,2.623c12.506,-0.526 20.529,-10.153 24.323,-21.355c4.972,-14.686 -1.032,-29.536 -11.77,-39.828zm1.692,26.244c0.925,0.276 2.089,-0.06 2.443,-1.107c0.009,0.231 0.024,0.464 0.028,0.674c-1.189,0.994 -2.009,1.131 -2.471,0.433z" vector-effect="non-scaling-stroke"/>
  </g>
</svg>