<svg width="199.79999999999998" height="90.0833450846225" viewBox="0 0 350 157.803657555645" class="looka-1j8o68f"><defs id="SvgjsDefs1702"></defs><g id="SvgjsG1703" featurekey="symbolFeature-0" transform="matrix(1.1850153462111794,0,0,1.1850153462111794,117.32815372293544,-13.53082078834415)" fill="#364f6b"><g xmlns="http://www.w3.org/2000/svg"><g><path d="M65.542,60.073c-1.841-3.282-6.929-2.842-10.165-2.917c-4.258-0.099-9.354,1.929-12.999,4.263    c-0.134-0.17-0.304-0.323-0.55-0.414c-5.807-2.123-11.773-3.736-17.826-4.969c-2.381-0.485-7.965-1.527-9.362,1.487    c-2.483,5.354,7.499,7.965,11.222,10.799c-2.672,1.091-5.213,2.23-7.636,3.889c-0.062,0.041-0.094,0.093-0.141,0.139    c-2.338-2.505-6.496-6.15-9.462-3.762c-0.87,0.699-0.303,2.063,0.032,2.833c0.332,0.764,1.603,1.678,2.17,2.319    c1.849,2.084-0.323,2.541-0.735,3.858c-1.46,4.668,3.802,5.386,7.137,5.036c2.424-0.254,4.783-1.034,7.127-1.669    c2.253-0.611,4.561-1.149,6.863-1.699c2.98-0.554,5.947-1.182,8.892-1.909c0.996,1.739,2.334,3.202,3.528,4.832    c1.11,1.513,2.154,3.024,3.498,4.342c1.66,1.626,4.247,2.467,6.009,0.604c3.059-3.232,2.062-10.453,1.172-14.624    c2.062-1.055,3.989-2.329,5.541-3.865c1.229-0.988,2.483-1.948,3.644-3.028c1.063-0.99,2.853-2.171,2.778-3.866    C66.254,61.21,65.974,60.53,65.542,60.073z"></path><path d="M76.665,20.08C65.221,9.113,46.552,9.25,33.292,16.629c-10.395,5.786-22.669,24.718-15.236,36.531    c0.495,0.787,1.876,0.286,1.551-0.653c-2.394-6.862-1.023-13.748,2.362-19.723c0.284,0.708,0.64,1.295,1.056,1.85    c1.029,2.055,2.429,3.98,3.523,5.96c0.133,0.243,0.243,0.477,0.362,0.714c0.681,1.92,1.212,3.833,1.218,4.62    c0.01,1.742,0.332,4.248-1.698,5.288c-0.486,0.249-1.15,0.468-1.528,0.891c-0.169,0.188-0.306,0.357-0.417,0.522    c-0.845,0.559-1.2,2.184,0.195,2.434c3.023,0.54,5.995,1.56,8.961,2.365c1.659,0.451,4.638,1.864,6.027,0.316    c0.2-0.223,0.359-0.542,0.37-0.858c0.236,0.217,0.322,0.483,0.173,0.817c-0.437,0.976,0.914,1.828,1.465,0.856    c1.179-2.086,0.378-3.201-0.91-3.839c0.099-0.436,0.06-0.927-0.206-1.442c-1.702-3.308-4.463-5.932-6.391-9.126    C37.17,40.714,45.89,33.361,46.292,33.21c4.826-1.822,13.367-5.813,11.113-12.453c-1.485-4.382-10.427-4.907-15.68-4.584    c11.749-3.943,25.469-0.604,34.263,7.836c1.786,1.713,3.381,3.606,4.79,5.617c-0.113-0.222-0.441-0.329-0.642-0.118    c-0.977,1.034-1.638,2.126-1.752,3.6c-0.186,2.384,0.853,5.613-1.11,7.411c-1.576,1.443-1.362,3.476-0.584,5.296    c0.771,1.796,1.873,3.462,4.01,2.924c1.77-0.446,1.254-2.628,1.197-4.293c0.093,0.257,0.192,0.512,0.339,0.742    c0.24,0.381,0.766,0.489,1.207,0.378c0.181,0.184,0.47,0.247,0.716,0.104c0.751-0.431,0.661-1.352,1.204-1.92    c0.632-0.66,1.155-0.139,1.46,0.477c0.104,0.649,0.182,1.302,0.245,1.956c-0.108-0.058-0.247-0.06-0.334,0.046    c-0.345,0.416-0.697,0.377-1.15,0.559c-0.067,0.027-0.113,0.08-0.159,0.129c-0.324-0.057-0.445,0.035-0.963,0.394    c-0.37,0.256-0.509,0.952,0,1.172c2.331,1.008-0.373,0.982-1.328,0.868c-1.513-0.181-2.97,0.023-4.446,0.327    c-1.755,0.36-3.728,1.924-3.847,3.843c-0.123,1.944,0.145,3.146,0.813,5.017c0.164,0.458,0.286,0.906,0.378,1.347    c-0.783,2.734-1.884,5.731-2.12,8.541c-0.037,0.061-0.07,0.122-0.108,0.182c-1.162,1.854-2.272,4.117-0.432,5.794    c0.618,0.564,1.832,0.026,1.505-0.876c-0.003-0.01-0.005-0.021-0.008-0.032c0.048,0.083,0.082,0.171,0.135,0.254    c0.066,0.103,0.144,0.181,0.225,0.254c-3.191,2.485-6.93,4.184-11.117,4.638c-1.643,0.179-1.72,2.695,0,2.623    c12.506-0.526,20.529-10.153,24.323-21.355C93.407,45.222,87.403,30.372,76.665,20.08z M78.357,46.324    c0.925,0.276,2.089-0.06,2.443-1.107c0.009,0.231,0.024,0.464,0.028,0.674C79.639,46.885,78.819,47.022,78.357,46.324z"></path></g></g></g><g id="SvgjsG1704" featurekey="nameFeature-0" transform="matrix(1.4269406463709675,0,0,1.4269406463709675,-2.853881292741935,100.15525190408263)" fill="#364f6b"><path d="M2 40 l0 -32 l4 0 l0 28 l5.2 0 l0 4 l-9.2 0 z M13.6 40 l0 -16.8 c0 -11.16 0 -15.56 6 -15.56 s6 4.4 6 15.56 l0 16.8 l-4 0 l0 -9.2 l-4 0 l0 9.2 l-4 0 z M17.6 27.6 l4 0 l0 -4.4 c0 -10.4 0 -12.36 -2 -12.36 s-2 1.96 -2 12.36 l0 4.4 z M28.8 30.240000000000002 l4.04 0 c0.08 5.16 0.48 6.16 1.92 6.16 c1.96 0 1.96 -1.64 1.96 -6 c0 -6.4 -7.92 -4.68 -7.92 -13.2 c0 -5 0 -9.6 6 -9.6 c4.44 0 5.64 2.52 5.92 8.56 l-4 0 c-0.16 -4.36 -0.64 -5.36 -1.92 -5.36 c-1.96 0 -1.96 2.16 -1.96 6.4 c0 6.2 7.96 4 7.96 13.2 c0 5.6 0 10 -6.04 10 c-4.64 0 -5.72 -2.76 -5.96 -10.16 z M42.4 11.600000000000001 l0 -3.6 l12 0 l0 3.6 l-4 0 l0 28.4 l-4 0 l0 -28.4 l-4 0 z M65.6 40 l0 -32 l3.6 0 l4.2 20 l0.4 0 l4.2 -20 l3.6 0 l0 32 l-4 0 l0 -16 l-2.84 16 l-2.4 0 l-2.76 -16 l0 16 l-4 0 z M85.6 40 l0 -32 l4 0 l0 32 l-4 0 z M93.6 40 l0 -32 l3.6 0 l5.24 19.6 l-0.04 -0.4 l0 -19.2 l4 0 l0 32 l-3.6 0 l-5.24 -17.6 l0.04 0.4 l0 17.2 l-4 0 z M110.19999999999999 23.16 l0 -15.16 l4 0 l0 15.16 c0 11.56 0 13.24 2 13.24 s2 -1.68 2 -13.24 l0 -15.16 l4 0 l0 15.16 c0 12.8 0 17.24 -6 17.24 s-6 -4.44 -6 -17.24 z M124.39999999999999 11.600000000000001 l0 -3.6 l12 0 l0 3.6 l-4 0 l0 28.4 l-4 0 l0 -28.4 l-4 0 z M138.79999999999998 40 l0 -32 l9.2 0 l0 3.2 l-5.2 0 l0 10.4 l4.4 0 l0 3.2 l-4.4 0 l0 11.2 l5.2 0 l0 4 l-9.2 0 z M159.6 40 l0 -32 l6.48 0 c4.12 0 5.2 2.52 5.52 8.56 l0 1.28 c-0.32 6.04 -1.4 8.56 -5.52 8.56 l-2.48 0 l0 13.6 l-4 0 z M163.6 23.2 l2.48 0 c1.2 0 1.64 -1 1.8 -5.36 l0 -1.28 c-0.16 -4.36 -0.6 -5.36 -1.8 -5.36 l-2.48 0 l0 12 z M174 23.16 c0 -11.16 0.24 -15.56 6.24 -15.56 s6.24 4.4 6.24 15.56 c0 12.8 -0.24 17.24 -6.24 17.24 s-6.24 -4.44 -6.24 -17.24 z M178 23.16 c0 11.56 0 13.24 2.24 13.24 s2.24 -1.68 2.24 -13.24 c0 -10.4 0 -12.36 -2.24 -12.36 s-2.24 1.96 -2.24 12.36 z M190.08 40 l0 -32 l3.6 0 l5.24 19.6 l-0.04 -0.4 l0 -19.2 l4 0 l0 32 l-3.6 0 l-5.24 -17.6 l0.04 0.4 l0 17.2 l-4 0 z M206.68000000000004 23.16 l0 -15.16 l4 0 l0 15.16 c0 11.56 0 13.24 2 13.24 s2 -1.68 2 -13.24 l0 -15.16 l4 0 l0 15.16 c0 12.8 0 17.24 -6 17.24 s-6 -4.44 -6 -17.24 z M222.48000000000002 40 l0 -32 l6 0 c6 0 6 4.4 6 15.16 c0 12.4 0 16.84 -6 16.84 l-6 0 z M226.48000000000002 36 l2 0 c2.24 0 2.24 -1.68 2.24 -12.84 c0 -10 0 -11.96 -2.24 -11.96 l-2 0 l0 24.8 z M238.08 40 l0 -32 l9.2 0 l0 3.2 l-5.2 0 l0 10.4 l4.4 0 l0 3.2 l-4.4 0 l0 11.2 l5.2 0 l0 4 l-9.2 0 z"></path></g></svg>