<?xml version="1.0" encoding="utf-8"?>
<svg viewBox="148.5742 28.5742 342.852 342.852" width="342.852" height="342.852" xmlns="http://www.w3.org/2000/svg">
  <g id="tight-bounds" transform="matrix(1, 0, 0, 1, 148.57421875, 28.574220657348626)">
    <svg viewBox="0 0 342.85155851775386 342.85155851775386" height="342.85155851775386" width="342.85155851775386">
      <g>
        <svg/>
      </g>
      <g>
        <svg viewBox="0 0 342.85155851775386 342.85155851775386" height="342.85155851775386" width="342.85155851775386">
          <g>
            <path d="M0 171.426c0-94.676 76.75-171.426 171.426-171.426 94.676 0 171.426 76.75 171.426 171.426 0 94.676-76.75 171.426-171.426 171.426-94.676 0-171.426-76.75-171.426-171.426zM171.426 339.913c93.053 0 168.488-75.434 168.487-168.487 0-93.053-75.434-168.488-168.487-168.488-93.053 0-168.488 75.434-168.488 168.488 0 93.053 75.434 168.488 168.488 168.487z" data-fill-palette-color="tertiary" fill="#fff6db" stroke="transparent"/>
            <ellipse rx="164.56874808852186" ry="164.56874808852186" cx="171.42577925887693" cy="171.42577925887693" fill="#fff6db" stroke="transparent" stroke-width="0" fill-opacity="1" data-fill-palette-color="tertiary"/>
          </g>
          <g transform="matrix(1,0,0,1,64.84655864529837,123.59693659674033)">
            <svg viewBox="0 0 213.1584412271571 95.6576853242732" height="95.6576853242732" width="213.1584412271571">
              <g>
                <svg viewBox="0 0 213.1584412271571 95.6576853242732" height="95.6576853242732" width="213.1584412271571">
                  <g>
                    <svg viewBox="0 0 213.1584412271571 95.6576853242732" height="95.6576853242732" width="213.1584412271571">
                      <g transform="matrix(1,0,0,1,0,63.07601960530889)">
                        <svg viewBox="0 0 213.1584412271571 32.58166571896431" height="32.58166571896431" width="213.1584412271571">
                          <g id="textblocktransform">
                            <svg viewBox="0 0 213.1584412271571 32.58166571896431" height="32.58166571896431" width="213.1584412271571" id="textblock">
                              <g>
                                <svg viewBox="0 0 213.1584412271571 32.58166571896431" height="32.58166571896431" width="213.1584412271571">
                                  <g transform="matrix(1,0,0,1,0,0)">
                                    <svg width="213.1584412271571" viewBox="1.7000000476837158 -36.849998474121094 243.6800079345703 37.25" height="32.58166571896431" data-palette-color="#3b4131">
                                      <path d="M28.5 0L1.7 0 1.7-1.9Q1.7-2.3 1.83-2.65 1.95-3 2.2-3.35L2.2-3.35 22.5-31.9 2.65-31.9 2.65-35.85 28.85-35.85 28.85-34.05Q28.85-33.15 28.35-32.45L28.35-32.45 8.05-3.95 28.5-3.95 28.5 0ZM28.5-3.95L24.4-2.7 25.15-7.7Q25.25-8.15 25.53-8.33 25.8-8.5 26.2-8.5L26.2-8.5 28.5-8.5 28.5-3.95ZM2.65-31.9L6.75-33.15 6-28.15Q5.95-27.7 5.65-27.53 5.35-27.35 4.95-27.35L4.95-27.35 2.65-27.35 2.65-31.9ZM43.4 0.35L43.4 0.35Q39.75 0.35 37.02-1.3 34.3-2.95 32.8-6 31.3-9.05 31.3-13.2L31.3-13.2Q31.3-16.75 32.75-19.6 34.2-22.45 36.87-24.1 39.55-25.75 43.15-25.75L43.15-25.75Q46.3-25.75 48.65-24.35 51-22.95 52.32-20.43 53.65-17.9 53.65-14.4L53.65-14.4Q53.65-13.35 53.42-13 53.2-12.65 52.55-12.65L52.55-12.65 35.7-12.65Q35.7-12.5 35.7-12.33 35.7-12.15 35.7-12L35.7-12Q35.95-7.8 38.05-5.48 40.15-3.15 43.75-3.15L43.75-3.15Q45.3-3.15 46.82-3.78 48.35-4.4 49.52-5 50.7-5.6 51.2-5.6L51.2-5.6Q51.75-5.6 52.05-5.2L52.05-5.2 53.3-3.55Q52.3-2.25 50.62-1.38 48.95-0.5 47.05-0.08 45.15 0.35 43.4 0.35ZM35.85-15.45L35.85-15.45 49.65-15.45Q49.65-18.55 47.95-20.5 46.25-22.45 43.25-22.45L43.25-22.45Q40-22.45 38.15-20.6 36.3-18.75 35.85-15.45ZM64.8 0L60.34 0 60.34-36.85 64.8-36.85 64.8 0ZM61.84 0L56.74 0 56.74-2.05Q56.74-2.5 56.95-2.78 57.14-3.05 57.55-3.1L57.55-3.1 61.3-3.9 61.84 0ZM68.39 0L63.3 0 63.84-3.9 67.59-3.1Q68-3.05 68.19-2.78 68.39-2.5 68.39-2.05L68.39-2.05 68.39 0ZM56.74-36.85L61.84-36.85 61.3-32.95 57.55-33.75Q57.14-33.85 56.95-34.1 56.74-34.35 56.74-34.8L56.74-34.8 56.74-36.85ZM83.09 0.35L83.09 0.35Q79.44 0.35 76.72-1.3 73.99-2.95 72.49-6 70.99-9.05 70.99-13.2L70.99-13.2Q70.99-16.75 72.44-19.6 73.89-22.45 76.57-24.1 79.24-25.75 82.84-25.75L82.84-25.75Q85.99-25.75 88.34-24.35 90.69-22.95 92.02-20.43 93.34-17.9 93.34-14.4L93.34-14.4Q93.34-13.35 93.12-13 92.89-12.65 92.24-12.65L92.24-12.65 75.39-12.65Q75.39-12.5 75.39-12.33 75.39-12.15 75.39-12L75.39-12Q75.64-7.8 77.74-5.48 79.84-3.15 83.44-3.15L83.44-3.15Q84.99-3.15 86.52-3.78 88.04-4.4 89.22-5 90.39-5.6 90.89-5.6L90.89-5.6Q91.44-5.6 91.74-5.2L91.74-5.2 92.99-3.55Q91.99-2.25 90.32-1.38 88.64-0.5 86.74-0.08 84.84 0.35 83.09 0.35ZM75.54-15.45L75.54-15.45 89.34-15.45Q89.34-18.55 87.64-20.5 85.94-22.45 82.94-22.45L82.94-22.45Q79.69-22.45 77.84-20.6 75.99-18.75 75.54-15.45ZM104.49 0L100.04 0 100.04-25.35 102.69-25.35Q103.69-25.35 103.89-24.4L103.89-24.4 104.24-21.65Q105.89-23.5 107.94-24.63 109.99-25.75 112.64-25.75L112.64-25.75Q115.44-25.75 117.32-24.55 119.19-23.35 120.17-21.18 121.14-19 121.14-16.15L121.14-16.15 121.14 0 116.69 0 116.69-16.15Q116.69-19 115.37-20.6 114.04-22.2 111.34-22.2L111.34-22.2Q109.39-22.2 107.67-21.25 105.94-20.3 104.49-18.65L104.49-18.65 104.49 0ZM101.54 0L96.44 0 96.44-2.05Q96.44-2.5 96.64-2.78 96.84-3.05 97.24-3.1L97.24-3.1 100.99-3.9 101.54 0ZM108.09 0L102.99 0 103.54-3.9 107.29-3.1Q107.69-3.05 107.89-2.78 108.09-2.5 108.09-2.05L108.09-2.05 108.09 0ZM124.74 0L119.64 0 120.19-3.9 123.94-3.1Q124.34-3.05 124.54-2.78 124.74-2.5 124.74-2.05L124.74-2.05 124.74 0ZM96.44-25.35L101.54-25.35 100.99-21.45 97.24-22.25Q96.84-22.35 96.64-22.6 96.44-22.85 96.44-23.3L96.44-23.3 96.44-25.35ZM134.84 0L130.39 0 130.39-25.35 134.84-25.35 134.84 0ZM131.89 0L126.79 0 126.79-2.05Q126.79-2.5 126.99-2.78 127.19-3.05 127.59-3.1L127.59-3.1 131.34-3.9 131.89 0ZM138.44 0L133.34 0 133.89-3.9 137.64-3.1Q138.04-3.05 138.24-2.78 138.44-2.5 138.44-2.05L138.44-2.05 138.44 0ZM126.79-25.35L131.89-25.35 131.34-21.45 127.59-22.25Q127.19-22.35 126.99-22.6 126.79-22.85 126.79-23.3L126.79-23.3 126.79-25.35ZM132.54-30.15L132.54-30.15Q131.29-30.15 130.34-31.1 129.39-32.05 129.39-33.3L129.39-33.3Q129.39-34.6 130.34-35.55 131.29-36.5 132.54-36.5L132.54-36.5Q133.84-36.5 134.79-35.55 135.74-34.6 135.74-33.3L135.74-33.3Q135.74-32.05 134.79-31.1 133.84-30.15 132.54-30.15ZM162.03 0.4L162.03 0.4Q160.23 0.4 158.01 0 155.78-0.4 154.18-1L154.18-1 154.18-4.7 156.38-4.2Q157.03-3.75 158.46-3.28 159.88-2.8 161.78-2.8L161.78-2.8Q164.63-2.8 165.98-3.98 167.33-5.15 167.33-6.85L167.33-6.85Q167.33-8.35 166.43-9.15 165.53-9.95 164.03-10.45 162.53-10.95 160.78-11.5L160.78-11.5Q158.98-12.1 157.48-12.9 155.98-13.7 155.08-14.98 154.18-16.25 154.18-18.2L154.18-18.2Q154.18-20.45 155.36-22.15 156.53-23.85 158.56-24.8 160.58-25.75 163.13-25.75L163.13-25.75Q164.58-25.75 166.36-25.4 168.13-25.05 170.23-24.35L170.23-24.35 170.23-21.35 167.58-21.7Q166.53-22 165.46-22.2 164.38-22.4 163.38-22.4L163.38-22.4Q161.93-22.4 160.81-21.95 159.68-21.5 159.03-20.7 158.38-19.9 158.38-18.85L158.38-18.85Q158.38-17.45 159.46-16.63 160.53-15.8 162.08-15.3 163.63-14.8 165.03-14.35L165.03-14.35Q166.68-13.85 168.16-13.05 169.63-12.25 170.58-10.95 171.53-9.65 171.53-7.55L171.53-7.55Q171.53-5.3 170.36-3.5 169.18-1.7 167.06-0.65 164.93 0.4 162.03 0.4ZM167.53-18.65L167.03-22.4 170.23-21.75 170.23-17.85 168.58-17.85Q168.08-17.85 167.83-18.07 167.58-18.3 167.53-18.65L167.53-18.65ZM156.88-6.8L157.38-3.05 154.18-3.7 154.18-7.6 155.83-7.6Q156.38-7.6 156.61-7.38 156.83-7.15 156.88-6.8L156.88-6.8ZM190.33 0L186.33 0 175.98-25.35 179.63-25.35Q180.18-25.35 180.53-25.08 180.88-24.8 181.03-24.4L181.03-24.4 187.43-8.1Q187.68-7.45 187.91-6.6 188.13-5.75 188.38-4.55L188.38-4.55Q188.58-5.4 188.81-6.3 189.03-7.2 189.38-8.1L189.38-8.1 195.88-24.4Q196.03-24.8 196.36-25.08 196.68-25.35 197.18-25.35L197.18-25.35 200.68-25.35 190.33 0ZM182.83-24.1L179.08-24.1 179.08-25.35 182.83-25.35 182.83-24.1ZM198.38-24.1L194.63-24.1 194.63-25.35 198.38-25.35 198.38-24.1ZM174.28-25.35L179.38-25.35 178.83-21.45 175.08-22.25Q174.68-22.35 174.48-22.6 174.28-22.85 174.28-23.3L174.28-23.3 174.28-25.35ZM180.53-25.35L185.63-25.35 185.63-23.3Q185.63-22.85 185.43-22.6 185.23-22.35 184.83-22.25L184.83-22.25 181.08-21.45 180.53-25.35ZM191.03-25.35L196.13-25.35 195.58-21.45 191.83-22.25Q191.43-22.35 191.23-22.6 191.03-22.85 191.03-23.3L191.03-23.3 191.03-25.35ZM197.28-25.35L202.38-25.35 202.38-23.3Q202.38-22.85 202.18-22.6 201.98-22.35 201.58-22.25L201.58-22.25 197.83-21.45 197.28-25.35ZM216.43 0.35L216.43 0.35Q212.78 0.35 210.05-1.3 207.33-2.95 205.83-6 204.33-9.05 204.33-13.2L204.33-13.2Q204.33-16.75 205.78-19.6 207.23-22.45 209.9-24.1 212.58-25.75 216.18-25.75L216.18-25.75Q219.33-25.75 221.68-24.35 224.03-22.95 225.35-20.43 226.68-17.9 226.68-14.4L226.68-14.4Q226.68-13.35 226.45-13 226.23-12.65 225.58-12.65L225.58-12.65 208.73-12.65Q208.73-12.5 208.73-12.33 208.73-12.15 208.73-12L208.73-12Q208.98-7.8 211.08-5.48 213.18-3.15 216.78-3.15L216.78-3.15Q218.33-3.15 219.85-3.78 221.38-4.4 222.55-5 223.73-5.6 224.23-5.6L224.23-5.6Q224.78-5.6 225.08-5.2L225.08-5.2 226.33-3.55Q225.33-2.25 223.65-1.38 221.98-0.5 220.08-0.08 218.18 0.35 216.43 0.35ZM208.88-15.45L208.88-15.45 222.68-15.45Q222.68-18.55 220.98-20.5 219.28-22.45 216.28-22.45L216.28-22.45Q213.03-22.45 211.18-20.6 209.33-18.75 208.88-15.45ZM239.28 0.4L239.28 0.4Q236.28 0.4 234.65-1.28 233.03-2.95 233.03-6.1L233.03-6.1 233.03-21.6 229.98-21.6Q229.58-21.6 229.3-21.85 229.03-22.1 229.03-22.6L229.03-22.6 229.03-24.35 233.18-24.9 234.23-32.7Q234.33-33.55 235.23-33.55L235.23-33.55 237.48-33.55 237.48-24.85 244.73-24.85 244.73-21.6 237.48-21.6 237.48-6.4Q237.48-4.8 238.25-4.03 239.03-3.25 240.28-3.25L240.28-3.25Q240.83-3.25 241.48-3.55 242.13-3.85 242.68-4.15 243.23-4.45 243.48-4.45L243.48-4.45Q243.83-4.45 244.08-4.05L244.08-4.05 245.38-1.9Q244.23-0.85 242.6-0.23 240.98 0.4 239.28 0.4Z" opacity="1" transform="matrix(1,0,0,1,0,0)" fill="#3b4131" class="wordmark-text-0" data-fill-palette-color="quaternary" id="text-0"/>
                                    </svg>
                                  </g>
                                </svg>
                              </g>
                            </svg>
                          </g>
                        </svg>
                      </g>
                      <g transform="matrix(1,0,0,1,80.37151885727138,0)">
                        <svg viewBox="0 0 52.41540351261436 55.384270289038675" height="55.384270289038675" width="52.41540351261436">
                          <g>
                            <svg xmlns="http://www.w3.org/2000/svg" version="1.1" x="0" y="0" viewBox="14.751999855041504 11.692000389099121 73.18000030517578 77.32499694824219" enable-background="new 0 0 100 100" height="55.384270289038675" width="52.41540351261436" class="icon-icon-0" data-fill-palette-color="quaternary" id="icon-0">
                              <path fill="#3b4131" d="M61.64 58.881C53.716 68.232 45.556 68.834 45.596 69.401 42.729 47.609 56.578 31.586 56.578 31.586A48.5 48.5 0 0 0 49.349 40.69L49.573 40.319C46.204 37.463 44.399 28.727 44.399 28.727 45.192 39.042 48.05 42.939 48.05 42.939 48.306 42.452 48.747 41.698 49.091 41.122 46.164 46.009 44.342 51.057 43.278 55.964L43.353 55.578C41.449 49.884 34.877 45.39 34.877 45.39 40.114 50.785 42.551 60.006 42.551 60.006 42.577 59.803 42.633 59.465 42.701 59.07 40.172 75.208 45.284 89.017 45.284 89.017H52.716C49.199 83.241 47.126 77.627 46.077 72.316 46.176 72.754 46.247 73.004 46.247 73.004 54.498 69.195 61.64 58.881 61.64 58.881" data-fill-palette-color="quaternary"/>
                              <path fill="#3b4131" d="M51.316 59.684S48.157 37.101 87.932 37.565C87.932 37.565 83.377 72.041 59.308 69.44 59.308 69.44 68.137 62.045 68.137 53.568 68.138 53.568 61.35 50.951 51.316 59.684" data-fill-palette-color="quaternary"/>
                              <path fill="#3b4131" d="M34.543 51.682S16.482 55.426 14.752 23.3C14.752 23.3 42.821 25.15 41.995 44.714 41.995 44.714 35.56 37.981 28.718 38.429 28.719 38.429 26.965 44.047 34.543 51.682" data-fill-palette-color="quaternary"/>
                              <path fill="#3b4131" d="M51.258 31.022S48.15 17.144 72.903 15.416C72.903 15.416 71.819 37.082 56.723 36.686 56.723 36.686 61.835 31.64 61.407 26.371 61.406 26.37 57.053 25.086 51.258 31.022" data-fill-palette-color="quaternary"/>
                              <path fill="#3b4131" d="M41.5 31.083S31.734 27.63 40.246 11.692C40.246 11.692 53.193 20.743 47.108 29.903 47.108 29.903 45.974 24.798 42.556 23.022 42.556 23.022 40.08 25.212 41.5 31.083" data-fill-palette-color="quaternary"/>
                            </svg>
                          </g>
                        </svg>
                      </g>
                      <g/>
                    </svg>
                  </g>
                </svg>
              </g>
            </svg>
          </g>
        </svg>
      </g>
      <defs/>
    </svg>
    <rect width="342.85155851775386" height="342.85155851775386" fill="none" stroke="none" visibility="hidden"/>
  </g>
</svg>