<svg xmlns="http://www.w3.org/2000/svg" xmlns:xlink="http://www.w3.org/1999/xlink" version="1.1" width="180" height="180" viewBox="0 0 1080 1080" xml:space="preserve">
<g transform="matrix(10.68 0 0 10.68 532.36 535.88)">
<path style="stroke: none; stroke-width: 1; stroke-dasharray: none; stroke-linecap: butt; stroke-dashoffset: 0; stroke-linejoin: miter; stroke-miterlimit: 4; fill:#ffffff; fill-rule: nonzero; opacity: 1;" vector-effect="non-scaling-stroke" transform=" translate(-37.22, -71.83)" d="M 65.542 60.073 C 63.701 56.791 58.613 57.231 55.377 57.156 C 51.119 57.057 46.023 59.085 42.378 61.419 C 42.244 61.248999999999995 42.074 61.096 41.828 61.004999999999995 C 36.021 58.882 30.055000000000003 57.269 24.002000000000002 56.035999999999994 C 21.621000000000002 55.550999999999995 16.037000000000003 54.50899999999999 14.640000000000002 57.522999999999996 C 12.157000000000002 62.876999999999995 22.139000000000003 65.488 25.862000000000002 68.322 C 23.19 69.413 20.649 70.552 18.226000000000003 72.211 C 18.164 72.252 18.132 72.304 18.085000000000004 72.35 C 15.747000000000003 69.845 11.589000000000004 66.19999999999999 8.623000000000005 68.588 C 7.7530000000000046 69.28699999999999 8.320000000000004 70.651 8.655000000000005 71.42099999999999 C 8.987000000000005 72.18499999999999 10.258000000000004 73.09899999999999 10.825000000000005 73.74 C 12.674000000000005 75.824 10.502000000000004 76.28099999999999 10.090000000000005 77.598 C 8.630000000000006 82.266 13.892000000000005 82.984 17.227000000000004 82.634 C 19.651000000000003 82.38 22.010000000000005 81.6 24.354000000000003 80.965 C 26.607000000000003 80.354 28.915000000000003 79.816 31.217000000000002 79.266 C 34.197 78.712 37.164 78.084 40.109 77.357 C 41.105000000000004 79.096 42.443000000000005 80.559 43.637 82.189 C 44.747 83.702 45.791 85.213 47.135 86.53099999999999 C 48.794999999999995 88.157 51.382 88.99799999999999 53.144 87.13499999999999 C 56.202999999999996 83.90299999999999 55.205999999999996 76.68199999999999 54.315999999999995 72.511 C 56.37799999999999 71.45599999999999 58.30499999999999 70.182 59.857 68.646 C 61.086 67.658 62.339999999999996 66.69800000000001 63.501 65.618 C 64.564 64.628 66.354 63.446999999999996 66.279 61.751999999999995 C 66.254 61.21 65.974 60.53 65.542 60.073 z" stroke-linecap="round"/>
</g>
</svg>