<svg xmlns="http://www.w3.org/2000/svg" xmlns:xlink="http://www.w3.org/1999/xlink" version="1.1" width="480" height="180" viewBox="0 0 1080 1080" xml:space="preserve">
<g transform="matrix(10.81 0 0 10.81 539.44 571.6)"  >
<path style="stroke: none; stroke-width: 1; stroke-dasharray: none; stroke-linecap: butt; stroke-dashoffset: 0; stroke-linejoin: miter; stroke-miterlimit: 4; fill: rgb(54,79,107); fill-rule: nonzero; opacity: 1;" vector-effect="non-scaling-stroke"  transform=" translate(-124.64, -24)" d="M 2 40 L 2 8 L 6 8 L 6 36 L 11.2 36 L 11.2 40 L 2 40 z M 13.6 40 L 13.6 23.2 C 13.6 12.04 13.6 7.639999999999999 19.6 7.639999999999999 C 25.6 7.639999999999999 25.6 12.04 25.6 23.2 L 25.6 40 L 21.6 40 L 21.6 30.8 L 17.6 30.8 L 17.6 40 L 13.600000000000001 40 z M 17.6 27.6 L 21.6 27.6 L 21.6 23.200000000000003 C 21.6 12.800000000000002 21.6 10.840000000000003 19.6 10.840000000000003 C 17.6 10.840000000000003 17.6 12.800000000000004 17.6 23.200000000000003 L 17.6 27.6 z M 28.8 30.240000000000002 L 32.84 30.240000000000002 C 32.92 35.400000000000006 33.32 36.400000000000006 34.760000000000005 36.400000000000006 C 36.720000000000006 36.400000000000006 36.720000000000006 34.760000000000005 36.720000000000006 30.400000000000006 C 36.720000000000006 24.000000000000007 28.800000000000004 25.720000000000006 28.800000000000004 17.200000000000006 C 28.800000000000004 12.200000000000006 28.800000000000004 7.600000000000007 34.800000000000004 7.600000000000007 C 39.24 7.600000000000007 40.440000000000005 10.120000000000006 40.720000000000006 16.160000000000007 L 36.720000000000006 16.160000000000007 C 36.56000000000001 11.800000000000008 36.080000000000005 10.800000000000008 34.800000000000004 10.800000000000008 C 32.84 10.800000000000008 32.84 12.960000000000008 32.84 17.20000000000001 C 32.84 23.40000000000001 40.800000000000004 21.20000000000001 40.800000000000004 30.40000000000001 C 40.800000000000004 36.00000000000001 40.800000000000004 40.400000000000006 34.760000000000005 40.400000000000006 C 30.120000000000005 40.400000000000006 29.040000000000006 37.64000000000001 28.800000000000004 30.240000000000006 z M 42.4 11.600000000000001 L 42.4 8.000000000000002 L 54.4 8.000000000000002 L 54.4 11.600000000000001 L 50.4 11.600000000000001 L 50.4 40 L 46.4 40 L 46.4 11.600000000000001 L 42.4 11.600000000000001 z M 65.6 40 L 65.6 8 L 69.19999999999999 8 L 73.39999999999999 28 L 73.8 28 L 78 8 L 81.6 8 L 81.6 40 L 77.6 40 L 77.6 24 L 74.75999999999999 40 L 72.35999999999999 40 L 69.59999999999998 24 L 69.59999999999998 40 L 65.59999999999998 40 z M 85.6 40 L 85.6 8 L 89.6 8 L 89.6 40 L 85.6 40 z M 93.6 40 L 93.6 8 L 97.19999999999999 8 L 102.43999999999998 27.6 L 102.39999999999998 27.200000000000003 L 102.39999999999998 8.000000000000004 L 106.39999999999998 8.000000000000004 L 106.39999999999998 40 L 102.79999999999998 40 L 97.55999999999999 22.4 L 97.6 22.799999999999997 L 97.6 40 L 93.6 40 z M 110.19999999999999 23.16 L 110.19999999999999 8 L 114.19999999999999 8 L 114.19999999999999 23.16 C 114.19999999999999 34.72 114.19999999999999 36.4 116.19999999999999 36.4 C 118.19999999999999 36.4 118.19999999999999 34.72 118.19999999999999 23.159999999999997 L 118.19999999999999 7.9999999999999964 L 122.19999999999999 7.9999999999999964 L 122.19999999999999 23.159999999999997 C 122.19999999999999 35.959999999999994 122.19999999999999 40.39999999999999 116.19999999999999 40.39999999999999 C 110.19999999999999 40.39999999999999 110.19999999999999 35.959999999999994 110.19999999999999 23.159999999999993 z M 124.39999999999999 11.600000000000001 L 124.39999999999999 8.000000000000002 L 136.39999999999998 8.000000000000002 L 136.39999999999998 11.600000000000001 L 132.39999999999998 11.600000000000001 L 132.39999999999998 40 L 128.39999999999998 40 L 128.39999999999998 11.600000000000001 L 124.39999999999998 11.600000000000001 z M 138.79999999999998 40 L 138.79999999999998 8 L 147.99999999999997 8 L 147.99999999999997 11.2 L 142.79999999999998 11.2 L 142.79999999999998 21.6 L 147.2 21.6 L 147.2 24.8 L 142.79999999999998 24.8 L 142.79999999999998 36 L 147.99999999999997 36 L 147.99999999999997 40 L 138.79999999999998 40 z M 159.6 40 L 159.6 8 L 166.07999999999998 8 C 170.2 8 171.27999999999997 10.52 171.6 16.560000000000002 L 171.6 17.840000000000003 C 171.28 23.880000000000003 170.2 26.400000000000006 166.07999999999998 26.400000000000006 L 163.6 26.400000000000006 L 163.6 40.00000000000001 L 159.6 40.00000000000001 z M 163.6 23.2 L 166.07999999999998 23.2 C 167.27999999999997 23.2 167.71999999999997 22.2 167.88 17.84 L 167.88 16.56 C 167.72 12.2 167.28 11.2 166.07999999999998 11.2 L 163.6 11.2 L 163.6 23.2 z M 174 23.16 C 174 12 174.24 7.6 180.24 7.6 C 186.24 7.6 186.48000000000002 12 186.48000000000002 23.16 C 186.48000000000002 35.96 186.24 40.4 180.24 40.4 C 174.24 40.4 174 35.96 174 23.16 z M 178 23.16 C 178 34.72 178 36.4 180.24 36.4 C 182.48000000000002 36.4 182.48000000000002 34.72 182.48000000000002 23.159999999999997 C 182.48000000000002 12.759999999999996 182.48000000000002 10.799999999999997 180.24 10.799999999999997 C 178 10.799999999999997 178 12.759999999999998 178 23.159999999999997 z M 190.08 40 L 190.08 8 L 193.68 8 L 198.92000000000002 27.6 L 198.88000000000002 27.200000000000003 L 198.88000000000002 8.000000000000004 L 202.88000000000002 8.000000000000004 L 202.88000000000002 40 L 199.28000000000003 40 L 194.04000000000002 22.4 L 194.08 22.799999999999997 L 194.08 40 L 190.08 40 z M 206.68000000000004 23.16 L 206.68000000000004 8 L 210.68000000000004 8 L 210.68000000000004 23.16 C 210.68000000000004 34.72 210.68000000000004 36.4 212.68000000000004 36.4 C 214.68000000000004 36.4 214.68000000000004 34.72 214.68000000000004 23.159999999999997 L 214.68000000000004 7.9999999999999964 L 218.68000000000004 7.9999999999999964 L 218.68000000000004 23.159999999999997 C 218.68000000000004 35.959999999999994 218.68000000000004 40.39999999999999 212.68000000000004 40.39999999999999 C 206.68000000000004 40.39999999999999 206.68000000000004 35.959999999999994 206.68000000000004 23.159999999999993 z M 222.48000000000002 40 L 222.48000000000002 8 L 228.48000000000002 8 C 234.48000000000002 8 234.48000000000002 12.4 234.48000000000002 23.16 C 234.48000000000002 35.56 234.48000000000002 40 228.48000000000002 40 L 222.48000000000002 40 z M 226.48000000000002 36 L 228.48000000000002 36 C 230.72000000000003 36 230.72000000000003 34.32 230.72000000000003 23.16 C 230.72000000000003 13.16 230.72000000000003 11.2 228.48000000000002 11.2 L 226.48000000000002 11.2 L 226.48000000000002 36 z M 238.08 40 L 238.08 8 L 247.28 8 L 247.28 11.2 L 242.08 11.2 L 242.08 21.6 L 246.48000000000002 21.6 L 246.48000000000002 24.8 L 242.08 24.8 L 242.08 36 L 247.28 36 L 247.28 40 L 238.08 40 z" stroke-linecap="round" />
</g>
</svg>