<svg xmlns="http://www.w3.org/2000/svg" version="1.1" xmlns:xlink="http://www.w3.org/1999/xlink" xmlns:svgjs="http://svgjs.dev/svgjs" width="2000" height="1999" viewBox="0 0 2000 1999"><g transform="matrix(1,0,0,1,-0.431486880466764,-0.4312711370263287)"><svg viewBox="0 0 343 343" data-background-color="#ffffff" preserveAspectRatio="xMidYMid meet" height="1999" width="2000" xmlns="http://www.w3.org/2000/svg" xmlns:xlink="http://www.w3.org/1999/xlink"><g id="tight-bounds" transform="matrix(1,0,0,1,0.0740000000000407,0.07400000000001228)"><svg viewBox="0 0 342.85155851775386 342.85155851775386" height="342.85155851775386" width="342.85155851775386"><g><svg></svg></g><g><svg viewBox="0 0 342.85155851775386 342.85155851775386" height="342.85155851775386" width="342.85155851775386"><g><path d="M0 171.426c0-94.676 76.75-171.426 171.426-171.426 94.676 0 171.426 76.75 171.426 171.426 0 94.676-76.75 171.426-171.426 171.426-94.676 0-171.426-76.75-171.426-171.426zM171.426 339.681c92.925 0 168.255-75.33 168.255-168.255 0-92.925-75.33-168.255-168.255-168.255-92.925 0-168.255 75.33-168.255 168.255 0 92.925 75.33 168.255 168.255 168.255z" data-fill-palette-color="tertiary" fill="#f1f8e8" stroke="transparent"></path><ellipse rx="164.56874808852186" ry="164.56874808852186" cx="171.42577925887693" cy="171.42577925887693" fill="#f1f8e8" stroke="transparent" stroke-width="0" fill-opacity="1" data-fill-palette-color="tertiary"></ellipse></g><g transform="matrix(1,0,0,1,64.84655864529837,79.50227173861316)"><svg viewBox="0 0 213.1584412271571 183.84701504052754" height="183.84701504052754" width="213.1584412271571"><g><svg viewBox="0 0 213.1584412271571 183.84701504052754" height="183.84701504052754" width="213.1584412271571"><g><svg viewBox="0 0 213.1584412271571 183.84701504052754" height="183.84701504052754" width="213.1584412271571"><g transform="matrix(1,0,0,1,0,110.14983660498577)"><svg viewBox="0 0 213.1584412271571 73.69717843554179" height="73.69717843554179" width="213.1584412271571"><g id="textblocktransform"><svg viewBox="0 0 213.1584412271571 73.69717843554179" height="73.69717843554179" width="213.1584412271571" id="textblock"><g><svg viewBox="0 0 213.1584412271571 35.159592703481074" height="35.159592703481074" width="213.1584412271571"><g transform="matrix(1,0,0,1,0,0)"><svg width="213.1584412271571" viewBox="2.2 -41.19 286.08 47.199999999999996" height="35.159592703481074" data-palette-color="#316357"><path d="M31.69-4.49L31.69 0 2.22 0 2.22-4.49 2.2-4.49 20.58-30.66 2.22-30.66 2.22-35.16 31.69-35.16 31.69-30.66 13.31-4.49 31.69-4.49ZM42.31-13.38L42.31-13.38Q43.82-13.04 45.33-12.84 46.85-12.65 48.39-12.65L48.39-12.65Q50-12.65 51.38-12.95 52.76-13.26 53.77-13.98 54.78-14.7 55.37-15.89 55.95-17.09 55.95-18.87L55.95-18.87Q55.95-20.31 55.56-21.51 55.17-22.71 54.4-23.56 53.64-24.41 52.51-24.89 51.39-25.37 49.9-25.37L49.9-25.37Q48.51-25.37 47.4-24.85 46.29-24.34 45.44-23.47 44.6-22.61 44-21.46 43.41-20.31 43.02-19.07 42.62-17.82 42.45-16.55 42.28-15.28 42.28-14.16L42.28-14.16Q42.28-13.96 42.28-13.77 42.28-13.57 42.31-13.38ZM62.64-18.95L62.64-18.95Q62.64-17.21 62.08-15.86 61.52-14.5 60.56-13.48 59.59-12.45 58.32-11.74 57.05-11.04 55.61-10.58 54.17-10.13 52.65-9.94 51.12-9.74 49.68-9.74L49.68-9.74Q47.85-9.74 46.07-10 44.28-10.25 42.55-10.82L42.55-10.82Q42.82-9.2 43.41-7.75 43.99-6.3 44.97-5.21 45.94-4.13 47.37-3.49 48.8-2.86 50.75-2.86L50.75-2.86Q52.05-2.86 53.22-3.25 54.39-3.64 55.37-4.35 56.35-5.05 57.09-6.03 57.83-7.01 58.3-8.2L58.3-8.2 61.86-6.88Q61.06-4.96 59.65-3.55 58.25-2.15 56.48-1.23 54.71-0.32 52.72 0.12 50.73 0.56 48.78 0.56L48.78 0.56Q45.55 0.56 42.82-0.52 40.09-1.61 38.11-3.56 36.13-5.52 35.01-8.23 33.88-10.94 33.88-14.16L33.88-14.16Q33.88-17.38 35.01-20.09 36.13-22.8 38.11-24.76 40.09-26.71 42.82-27.8 45.55-28.88 48.78-28.88L48.78-28.88Q50.34-28.88 51.98-28.66 53.61-28.44 55.15-27.97 56.69-27.49 58.05-26.73 59.42-25.98 60.43-24.87 61.45-23.75 62.05-22.29 62.64-20.83 62.64-18.95ZM76.04-32.62L76.04 0 67.79 0 67.79-41.19 70.97-41.19 76.04-32.62ZM89.71-13.38L89.71-13.38Q91.23-13.04 92.74-12.84 94.26-12.65 95.79-12.65L95.79-12.65Q97.4-12.65 98.78-12.95 100.16-13.26 101.18-13.98 102.19-14.7 102.78-15.89 103.36-17.09 103.36-18.87L103.36-18.87Q103.36-20.31 102.97-21.51 102.58-22.71 101.81-23.56 101.04-24.41 99.92-24.89 98.8-25.37 97.31-25.37L97.31-25.37Q95.92-25.37 94.8-24.85 93.69-24.34 92.85-23.47 92.01-22.61 91.41-21.46 90.81-20.31 90.42-19.07 90.03-17.82 89.86-16.55 89.69-15.28 89.69-14.16L89.69-14.16Q89.69-13.96 89.69-13.77 89.69-13.57 89.71-13.38ZM110.05-18.95L110.05-18.95Q110.05-17.21 109.49-15.86 108.93-14.5 107.96-13.48 107-12.45 105.73-11.74 104.46-11.04 103.02-10.58 101.58-10.13 100.05-9.94 98.53-9.74 97.09-9.74L97.09-9.74Q95.26-9.74 93.47-10 91.69-10.25 89.96-10.82L89.96-10.82Q90.23-9.2 90.81-7.75 91.4-6.3 92.38-5.21 93.35-4.13 94.78-3.49 96.21-2.86 98.16-2.86L98.16-2.86Q99.46-2.86 100.63-3.25 101.8-3.64 102.78-4.35 103.75-5.05 104.5-6.03 105.24-7.01 105.71-8.2L105.71-8.2 109.27-6.88Q108.46-4.96 107.06-3.55 105.66-2.15 103.89-1.23 102.12-0.32 100.13 0.12 98.14 0.56 96.18 0.56L96.18 0.56Q92.96 0.56 90.23-0.52 87.49-1.61 85.51-3.56 83.54-5.52 82.41-8.23 81.29-10.94 81.29-14.16L81.29-14.16Q81.29-17.38 82.41-20.09 83.54-22.8 85.51-24.76 87.49-26.71 90.23-27.8 92.96-28.88 96.18-28.88L96.18-28.88Q97.75-28.88 99.38-28.66 101.02-28.44 102.56-27.97 104.09-27.49 105.46-26.73 106.83-25.98 107.84-24.87 108.85-23.75 109.45-22.29 110.05-20.83 110.05-18.95ZM144.03-16.16L144.03-16.16Q144.03-13.31 143.34-10.21 142.64-7.1 141.4-4.13 140.15-1.15 138.42 1.48 136.68 4.1 134.61 6.01L134.61 6.01 131.51 4.32Q132.17 3.1 132.75 1.59 133.34 0.07 133.82-1.62 134.29-3.32 134.67-5.13 135.05-6.93 135.3-8.7 135.56-10.47 135.7-12.15 135.83-13.82 135.83-15.26L135.83-15.26Q135.83-16.21 135.76-17.3 135.68-18.38 135.45-19.47 135.22-20.56 134.83-21.56 134.44-22.56 133.79-23.32 133.14-24.07 132.23-24.54 131.31-25 130.07-25L130.07-25Q128.85-25 127.9-24.45 126.94-23.9 126.21-23.01 125.48-22.12 124.95-20.97 124.43-19.82 124.1-18.62 123.77-17.41 123.62-16.24 123.48-15.06 123.48-14.14L123.48-14.14 123.48 0 115.2 0 115.2-28.2 118.37-28.2 122.16-21.63Q122.84-23.27 123.87-24.61 124.89-25.95 126.19-26.9 127.48-27.86 129.05-28.37 130.63-28.88 132.46-28.88L132.46-28.88Q135.39-28.88 137.56-27.93 139.74-26.98 141.18-25.28 142.62-23.58 143.32-21.25 144.03-18.92 144.03-16.16ZM158.14-35.01L158.14-35.01Q158.14-34.08 157.79-33.25 157.43-32.42 156.82-31.81 156.21-31.2 155.38-30.85 154.55-30.49 153.63-30.49L153.63-30.49Q152.7-30.49 151.88-30.85 151.06-31.2 150.45-31.81 149.84-32.42 149.49-33.25 149.13-34.08 149.13-35.01L149.13-35.01Q149.13-35.94 149.49-36.76 149.84-37.57 150.45-38.18 151.06-38.79 151.88-39.15 152.7-39.5 153.63-39.5L153.63-39.5Q154.55-39.5 155.38-39.15 156.21-38.79 156.82-38.18 157.43-37.57 157.79-36.76 158.14-35.94 158.14-35.01ZM157.78-28.17L157.78 0 149.5 0 149.5-28.17 157.78-28.17ZM203.11-9.01L203.11-9.01Q203.11-7.15 202.57-5.71 202.03-4.27 201.11-3.21 200.18-2.15 198.91-1.43 197.64-0.71 196.19-0.27 194.73 0.17 193.15 0.37 191.56 0.56 190 0.56L190 0.56Q187.9 0.56 186.29 0.29 184.67 0.02 183.21-0.57 181.75-1.17 180.29-2.12 178.84-3.08 177.06-4.44L177.06-4.44 181.87-8.37Q182.53-7.13 183.61-6.12 184.7-5.1 185.87-4.37 187.04-3.64 188.14-3.25 189.24-2.86 189.92-2.86L189.92-2.86Q190.49-2.86 191.19-2.89 191.9-2.93 192.63-3.04 193.37-3.15 194.07-3.37 194.78-3.59 195.33-3.97 195.88-4.35 196.21-4.92 196.54-5.49 196.54-6.3L196.54-6.3Q196.54-7.13 196.11-7.75 195.69-8.37 195-8.84 194.32-9.3 193.44-9.62 192.56-9.94 191.67-10.18 190.78-10.42 189.95-10.61 189.12-10.79 188.51-10.96L188.51-10.96Q187.38-11.28 186.14-11.61 184.89-11.94 183.67-12.37 182.45-12.79 181.34-13.38 180.23-13.96 179.39-14.78 178.55-15.6 178.05-16.71 177.55-17.82 177.55-19.31L177.55-19.31Q177.55-22.05 178.63-23.89 179.72-25.73 181.5-26.84 183.28-27.95 185.55-28.42 187.82-28.88 190.17-28.88L190.17-28.88Q191.78-28.88 193.56-28.55 195.34-28.22 197.03-27.58 198.71-26.93 200.18-26 201.64-25.07 202.62-23.88L202.62-23.88 197.81-19.92Q197.27-21.39 196.41-22.44 195.54-23.49 194.53-24.16 193.51-24.83 192.45-25.15 191.39-25.46 190.49-25.46L190.49-25.46Q189.61-25.46 188.51-25.39 187.41-25.32 186.44-24.98 185.48-24.63 184.81-23.94 184.14-23.24 184.14-22.02L184.14-22.02Q184.14-21.14 184.54-20.52 184.94-19.9 185.6-19.45 186.26-18.99 187.1-18.69 187.95-18.38 188.83-18.15 189.7-17.92 190.53-17.75 191.36-17.58 192.02-17.38L192.02-17.38Q193.15-17.07 194.4-16.74 195.66-16.41 196.88-15.98 198.1-15.55 199.24-14.98 200.37-14.4 201.23-13.57 202.08-12.74 202.59-11.63 203.11-10.52 203.11-9.01ZM233.92-28.2L222.81 0 215.39 0 205.13-28.2 213.38-28.2 220.9-5.74 228.2-28.2 233.92-28.2ZM243.63-13.38L243.63-13.38Q245.14-13.04 246.66-12.84 248.17-12.65 249.71-12.65L249.71-12.65Q251.32-12.65 252.7-12.95 254.08-13.26 255.09-13.98 256.11-14.7 256.69-15.89 257.28-17.09 257.28-18.87L257.28-18.87Q257.28-20.31 256.89-21.51 256.5-22.71 255.73-23.56 254.96-24.41 253.83-24.89 252.71-25.37 251.22-25.37L251.22-25.37Q249.83-25.37 248.72-24.85 247.61-24.34 246.77-23.47 245.92-22.61 245.33-21.46 244.73-20.31 244.34-19.07 243.95-17.82 243.78-16.55 243.61-15.28 243.61-14.16L243.61-14.16Q243.61-13.96 243.61-13.77 243.61-13.57 243.63-13.38ZM263.97-18.95L263.97-18.95Q263.97-17.21 263.41-15.86 262.84-14.5 261.88-13.48 260.92-12.45 259.65-11.74 258.38-11.04 256.94-10.58 255.5-10.13 253.97-9.94 252.44-9.74 251-9.74L251-9.74Q249.17-9.74 247.39-10 245.61-10.25 243.87-10.82L243.87-10.82Q244.14-9.2 244.73-7.75 245.31-6.3 246.29-5.21 247.27-4.13 248.7-3.49 250.12-2.86 252.08-2.86L252.08-2.86Q253.37-2.86 254.54-3.25 255.71-3.64 256.69-4.35 257.67-5.05 258.41-6.03 259.16-7.01 259.62-8.2L259.62-8.2 263.19-6.88Q262.38-4.96 260.98-3.55 259.57-2.15 257.8-1.23 256.03-0.32 254.04 0.12 252.05 0.56 250.1 0.56L250.1 0.56Q246.88 0.56 244.14-0.52 241.41-1.61 239.43-3.56 237.45-5.52 236.33-8.23 235.21-10.94 235.21-14.16L235.21-14.16Q235.21-17.38 236.33-20.09 237.45-22.8 239.43-24.76 241.41-26.71 244.14-27.8 246.88-28.88 250.1-28.88L250.1-28.88Q251.66-28.88 253.3-28.66 254.93-28.44 256.47-27.97 258.01-27.49 259.38-26.73 260.74-25.98 261.76-24.87 262.77-23.75 263.37-22.29 263.97-20.83 263.97-18.95ZM279.74-24.93L279.74 0 271.46 0 271.46-24.93 266.33-24.93 266.33-28.2 271.46-28.2 271.46-38.57 279.74-38.57 279.74-28.2 288.28-28.2 288.28-24.93 279.74-24.93Z" opacity="1" transform="matrix(1,0,0,1,0,0)" fill="#316357" class="wordmark-text-0" data-fill-palette-color="quaternary" id="text-0"></path></svg></g></svg></g><g transform="matrix(1,0,0,1,48.813219747257044,43.45992871054807)"><svg viewBox="0 0 115.53200173264302 30.237249724993724" height="30.237249724993724" width="115.53200173264302"><g transform="matrix(1,0,0,1,0,0)"><svg width="115.53200173264302" viewBox="2.35 -29.75 188.72 49.4" height="30.237249724993724" data-palette-color="#316357"><path d="M10.45 3.65L10.45 3.65Q8.5 3.65 7.18 2.2 5.85 0.75 5.85-1.2L5.85-1.2Q5.85-1.8 6.1-2.7L6.1-2.7Q2.35-4.2 2.35-8L2.35-8Q2.35-10.1 3.53-12.7 4.7-15.3 6.8-17.95L6.8-17.95Q9.4-21.25 12.73-23.93 16.05-26.6 19.53-28.18 23-29.75 26.05-29.75L26.05-29.75Q29.05-29.75 30.95-27.7 32.85-25.65 32.85-22.6L32.85-22.6Q32.85-21.2 32.5-20.1L32.5-20.1Q31.55-16.6 29.63-13.23 27.7-9.85 25.13-6.85 22.55-3.85 19.65-1.3L19.65-1.3 19.7-1.3Q17.3 0.8 14.75 2.23 12.2 3.65 10.45 3.65ZM10.8 2.15L10.8 2.15Q12.25 2.15 14.38 0.95 16.5-0.25 18.6-2.1L18.6-2.1Q26.55-9.1 29.65-19.7L29.65-19.7Q30.35-22.05 30.35-24L30.35-24Q30.35-26.1 29.48-27.38 28.6-28.65 26.75-28.65L26.75-28.65 26.7-28.65Q22.1-28.65 17.35-25.7L17.35-25.7Q14.2-23.7 11.58-20.98 8.95-18.25 7.18-15.23 5.4-12.2 4.75-9.3L4.75-9.3Q4.6-8.65 4.6-8L4.6-8Q4.6-5.6 6.55-4.25L6.55-4.25Q7.1-6 7.95-7.93 8.8-9.85 10.05-11.85L10.05-11.85Q11.65-14.55 13.45-16.9 15.25-19.25 16.95-20.98 18.65-22.7 19.9-23.4L19.9-23.4Q20.15-23.55 20.58-23.68 21-23.8 21.35-23.8L21.35-23.8Q22.2-23.8 21.8-23.15L21.8-23.15Q21.6-22.7 20.5-21.75L20.5-21.75Q18-19.7 15.43-16.75 12.85-13.8 10.83-10.48 8.8-7.15 7.9-3.85L7.9-3.85 8.65-3.75Q9.6-3.75 11.08-4.15 12.55-4.55 13.4-5L13.4-5Q13.7-5.15 13.85-5.15L13.85-5.15Q14.1-5.15 14.1-4.9L14.1-4.9Q14.1-4.5 13.3-4.08 12.5-3.65 11.4-3.3 10.3-2.95 9.38-2.78 8.45-2.6 8.2-2.65L8.2-2.65 7.65-2.75Q7.6-2.6 7.6-2.05L7.6-2.05Q7.6-0.3 8.47 0.93 9.35 2.15 10.8 2.15ZM21.6 19.65L21.6 19.65Q21.05 19.65 20.75 18.65L20.75 18.65Q20.6 18.2 20.6 17.55L20.6 17.55Q20.6 14.75 23.2 10.95L23.2 10.95Q24.5 9.05 26.12 7 27.75 4.95 29.45 3.18 31.15 1.4 32.5 0.3L32.5 0.3Q33-0.1 33.37-0.8 33.75-1.5 34-2.23 34.25-2.95 34.25-3.3L34.25-3.3Q34.25-4 33.6-4L33.6-4Q33.2-4 32.45-3.65L32.45-3.65Q32.1-3.45 31.77-3.2 31.45-2.95 31-2.65L31-2.65 29.8-1.85Q29.35-1.55 29-1.55L29-1.55Q28.3-1.55 28.3-2.2L28.3-2.2Q28.3-2.65 28.8-3.15L28.8-3.15Q28.8-3.3 29.1-3.45L29.1-3.45Q30.35-4 31.85-5.4L31.85-5.4Q33.45-6.8 34.77-8.53 36.1-10.25 36.5-11.85L36.5-11.85Q36.65-12.6 36.65-13.05L36.65-13.05Q36.65-14.3 35.55-14.3L35.55-14.3Q33.8-14.3 31.87-12.93 29.95-11.55 28.4-9.8L28.4-9.8Q28.35-9.65 28.2-9.65L28.2-9.65Q27.95-9.65 27.95-10.05L27.95-10.05Q27.95-10.3 28.1-10.45L28.1-10.45Q29.1-11.7 30.4-12.85 31.7-14 33.12-14.78 34.55-15.55 35.85-15.55L35.85-15.55Q36.05-15.55 36.32-15.5 36.6-15.45 36.95-15.35L36.95-15.35Q38.4-14.9 38.4-13.35L38.4-13.35Q38.4-11.8 37.05-9.75L37.05-9.75Q35.8-7.95 32.55-5L32.55-5 34.35-5.85Q35.5-6.4 36.25-6.4L36.25-6.4Q36.65-6.4 36.85-6.2L36.85-6.2Q37-6 37-5.7L37-5.7Q37-5.3 36.85-5L36.85-5Q36.6-4.6 36.6-4.3L36.6-4.3Q36.6-3.75 37.15-3.75L37.15-3.75Q37.3-3.75 37.87-4 38.45-4.25 38.75-4.4L38.75-4.4Q39.3-4.7 39.72-4.98 40.15-5.25 40.5-5.5L40.5-5.5Q40.85-5.7 40.85-5.4L40.85-5.4Q40.7-5 40.25-4.75L40.25-4.75Q39.9-4.5 39.32-4.03 38.75-3.55 37.9-2.9L37.9-2.9 35.7-1.15Q35.25-0.75 34.55 0.55L34.55 0.55 32.95 3.6 32.35 4.7Q31.45 6.35 30.57 8.05 29.7 9.75 28.7 11.35L28.7 11.35Q25.2 17.35 23.25 18.8L23.25 18.8Q22.1 19.65 21.6 19.65ZM22.65 17.65L22.65 17.65Q23.05 17.65 23.4 17.3L23.4 17.3Q24.2 16.65 25.65 14.35L25.65 14.35Q27.3 11.85 28.85 9.05 30.4 6.25 31.2 4.2L31.2 4.2Q31.3 3.95 31.35 3.75 31.4 3.55 31.45 3.45L31.45 3.45Q31.55 3.15 31.55 3.1L31.55 3.1Q31.55 2.55 30.95 2.85L30.95 2.85Q30.75 2.95 30.52 3.1 30.3 3.25 30.05 3.5L30.05 3.5Q28.65 4.7 27.12 6.63 25.6 8.55 23.3 12.25L23.3 12.25Q22.65 13.3 22.3 14.48 21.95 15.65 21.95 16.5L21.95 16.5Q21.95 17.2 22.15 17.4L22.15 17.4Q22.4 17.65 22.65 17.65ZM43.8 0.55L43.8 0.55Q42.75 0.55 41.95 0L41.95 0Q40.65-1 40.65-3L40.65-3Q40.65-5 42.05-7.25 43.45-9.5 46.3-11.4L46.3-11.4Q46.8-11.75 47.65-11.75L47.65-11.75Q48.75-11.75 49.62-11.15 50.5-10.55 50.3-9.6L50.3-9.6Q49.95-8.05 48.77-6.85 47.59-5.65 46.02-4.73 44.45-3.8 42.8-2.95L42.8-2.95Q42.75-2.8 42.72-2.65 42.7-2.5 42.7-2.35L42.7-2.35Q42.7-1.65 43.17-1.13 43.65-0.6 44.5-0.6L44.5-0.6Q45.15-0.6 45.59-0.8L45.59-0.8Q46.4-1.1 46.92-1.35 47.45-1.6 48.15-2.1 48.84-2.6 50.05-3.6L50.05-3.6Q50.59-4 50.7-4L50.7-4Q51-4 50.9-3.55L50.9-3.55Q50.4-2.75 49.17-1.8 47.95-0.85 46.47-0.15 45 0.55 43.8 0.55ZM43.09-4.3L43.09-4.3Q43.5-4.3 44.75-5.1 46-5.9 47.09-6.85L47.09-6.85Q49-8.6 49-9.55L49-9.55Q49-9.8 48.84-10L48.84-10Q48.7-10.25 48.4-10.25L48.4-10.25Q47.45-10.25 45.2-8L45.2-8Q43.65-6.5 43.09-4.3ZM50.99 3.3L50.99 3.3Q50.44 3.3 50.07 2.95 49.69 2.6 49.74 2.1L49.74 2.1Q49.84 0.05 50.52-1.85 51.19-3.75 52.49-6.4L52.49-6.4Q52.64-6.75 52.77-7.03 52.89-7.3 52.99-7.5L52.99-7.5Q54.09-9.85 55.24-12 56.39-14.15 57.54-16.2L57.54-16.2 58.24-17.45Q59.44-19.6 60.34-20.93 61.24-22.25 62.14-22.85L62.14-22.85Q63.29-23.55 63.54-23.55L63.54-23.55Q63.94-23.55 64.34-22.85L64.34-22.85Q64.59-22.35 63.34-20.4L63.34-20.4Q62.69-19.4 61.72-17.9 60.74-16.4 59.39-14.5L59.39-14.5Q59.14-14.15 58.57-13.28 57.99-12.4 57.04-11L57.04-11Q56.09-9.6 55.39-8.47 54.69-7.35 54.24-6.5L54.24-6.5Q53.34-4.85 52.54-2.98 51.74-1.1 51.74-0.05L51.74-0.05Q51.74 0.9 52.49 0.9L52.49 0.9Q53.69 0.9 56.34-1.15L56.34-1.15Q56.64-1.1 56.64-0.85L56.64-0.85Q56.64-0.65 56.14-0.15L56.14-0.15Q55.69 0.3 55.02 0.83 54.34 1.35 53.44 2.05L53.44 2.05 52.64 2.65Q51.84 3.3 50.99 3.3ZM61.39 0.55L61.39 0.55Q60.34 0.55 59.54 0L59.54 0Q58.24-1 58.24-3L58.24-3Q58.24-5 59.64-7.25 61.04-9.5 63.89-11.4L63.89-11.4Q64.39-11.75 65.24-11.75L65.24-11.75Q66.34-11.75 67.22-11.15 68.09-10.55 67.89-9.6L67.89-9.6Q67.54-8.05 66.37-6.85 65.19-5.65 63.62-4.73 62.04-3.8 60.39-2.95L60.39-2.95Q60.34-2.8 60.32-2.65 60.29-2.5 60.29-2.35L60.29-2.35Q60.29-1.65 60.77-1.13 61.24-0.6 62.09-0.6L62.09-0.6Q62.74-0.6 63.19-0.8L63.19-0.8Q63.99-1.1 64.52-1.35 65.04-1.6 65.74-2.1 66.44-2.6 67.64-3.6L67.64-3.6Q68.19-4 68.29-4L68.29-4Q68.59-4 68.49-3.55L68.49-3.55Q67.99-2.75 66.77-1.8 65.54-0.85 64.07-0.15 62.59 0.55 61.39 0.55ZM60.69-4.3L60.69-4.3Q61.09-4.3 62.34-5.1 63.59-5.9 64.69-6.85L64.69-6.85Q66.59-8.6 66.59-9.55L66.59-9.55Q66.59-9.8 66.44-10L66.44-10Q66.29-10.25 65.99-10.25L65.99-10.25Q65.04-10.25 62.79-8L62.79-8Q61.24-6.5 60.69-4.3ZM68.69 0.8L68.69 0.8Q67.79 0.8 67.79 0.1L67.79 0.1Q67.79-0.35 68.11-1.05 68.44-1.75 68.79-2.4L68.79-2.4Q69.74-4.1 70.54-5.7 71.34-7.3 72.09-9.1L72.09-9.1Q72.44-9.9 73.14-9.9L73.14-9.9Q73.89-9.9 73.59-9L73.59-9Q73.29-8.25 72.99-7.65L72.99-7.65Q71.59-4.8 71.59-3.8L71.59-3.8Q71.59-3.35 71.89-3.25L71.89-3.25Q72.59-3.8 72.94-4.08 73.29-4.35 73.34-4.4L73.34-4.4Q74.04-4.95 74.91-5.68 75.79-6.4 76.84-7.35L76.84-7.35Q78.49-8.85 79.59-8.85L79.59-8.85Q80.94-8.85 80.74-6.4L80.74-6.4Q80.69-5.45 80.74-4.55L80.74-4.55Q80.79-4.35 80.79-3.98 80.79-3.6 80.79-3.1L80.79-3.1Q80.79-2.6 81.39-2.6L81.39-2.6Q82.09-2.6 82.69-3L82.69-3 83.79-3.75 84.89-4.45Q84.99-4.5 85.24-4.5L85.24-4.5Q85.54-4.5 85.24-4.05L85.24-4.05Q82.09-0.15 80.04-0.15L80.04-0.15Q79.64-0.15 79.24-0.3L79.24-0.3Q78.89-0.45 78.74-1.18 78.59-1.9 78.56-2.75 78.54-3.6 78.54-4.05L78.54-4.05 78.59-5.7Q78.59-6.75 78.04-6.75L78.04-6.75Q76.74-6.75 71.64-1.4L71.64-1.4Q71.24-0.9 70.39-0.05 69.54 0.8 68.69 0.8ZM90.49-10.95L90.49-10.95Q89.84-10.95 89.84-11.25L89.84-11.25Q89.84-11.5 90.21-11.98 90.59-12.45 91.09-12.8L91.09-12.8Q92.19-13.5 92.81-14 93.44-14.5 94.34-15.7L94.34-15.7Q94.39-15.6 94.39-15.3L94.39-15.3Q94.39-14.65 93.86-13.73 93.34-12.8 92.69-12.05 92.04-11.3 91.54-11.1L91.54-11.1Q91.09-10.95 90.49-10.95ZM86.04 1.3L86.04 1.3Q85.64 1.3 85.29 1 84.94 0.7 84.94 0.2L84.94 0.2Q84.94-0.85 86.39-3.65L86.39-3.65 86.94-4.75Q87.04-4.85 87.21-5.25 87.39-5.65 87.74-6.3L87.74-6.3Q88.09-7 88.29-7.55 88.49-8.1 88.59-8.6L88.59-8.6Q88.59-8.65 88.79-8.8 88.99-8.95 89.19-9.05L89.19-9.05 89.49-9.1Q89.89-9.1 90.16-8.95 90.44-8.8 90.34-8.55L90.34-8.55Q89.99-7.8 89.74-7.25 89.49-6.7 89.34-6.3L89.34-6.3 89.29-6.3Q88.74-5.05 88.36-3.93 87.99-2.8 88.04-1.8L88.04-1.8 88.09-0.45Q88.04 0.05 87.74 0.4L87.74 0.4Q87.54 0.55 87.19 0.78 86.84 1 86.29 1.25L86.29 1.25Q86.24 1.3 86.04 1.3ZM90.13 1.65L90.13 1.65Q89.78 1.65 89.78 1.05L89.78 1.05Q89.78 0.55 90.01-0.15 90.23-0.85 90.53-1.45L90.53-1.45Q90.98-2.3 91.88-4.45L91.88-4.45Q92.93-6.8 93.63-8.22 94.33-9.65 94.98-10.4L94.98-10.4Q95.68-11.25 96.08-11.25L96.08-11.25Q96.33-11.25 96.48-10.93 96.63-10.6 96.63-10.2L96.63-10.2Q96.63-9.8 96.53-9.7L96.53-9.7Q96.13-9.3 95.48-8.35 94.83-7.4 94.28-6.45L94.28-6.45Q93.23-4.5 93.23-3.55L93.23-3.55Q93.23-3.45 93.26-3.35 93.28-3.25 93.33-3.15L93.33-3.15Q93.93-3.45 94.43-3.75 94.93-4.05 95.58-4.6L95.58-4.6 98.63-7.4Q99.13-7.85 99.53-8.15 99.93-8.45 100.18-8.65L100.18-8.65Q100.68-9 101.13-9L101.13-9Q101.53-9 102.08-8.5L102.08-8.5Q102.33-8.25 102.33-7.15L102.33-7.15 102.33-5.9Q102.33-5.7 102.31-5.53 102.28-5.35 102.28-5.15L102.28-5.15Q102.28-4.5 102.46-4.03 102.63-3.55 102.98-3.55L102.98-3.55Q103.13-3.55 103.38-3.8L103.38-3.8 104.78-5.45Q106.53-7.5 107.48-8.45 108.43-9.4 109.63-9.75L109.63-9.75Q109.78-9.8 109.91-9.83 110.03-9.85 110.13-9.85L110.13-9.85Q110.58-9.85 110.91-9.55 111.23-9.25 111.08-8.75L111.08-8.75Q110.88-7.95 110.56-6.93 110.23-5.9 109.98-5.3L109.98-5.3Q109.38-4.1 109.38-3.4L109.38-3.4Q109.38-2.95 109.76-2.8 110.13-2.65 110.51-2.6 110.88-2.55 110.88-2.4L110.88-2.4Q111.88-2.75 112.38-2.75L112.38-2.75Q112.88-2.75 112.63-2.43 112.38-2.1 111.73-1.65 111.08-1.2 110.31-0.88 109.53-0.55 108.93-0.55L108.93-0.55Q107.68-0.55 107.68-1.9L107.68-1.9Q107.68-2.6 107.88-3.2L107.88-3.2Q108.58-5.75 108.58-6.5L108.58-6.5Q108.58-7.25 108.18-7.25L108.18-7.25Q107.28-7.25 104.33-3.65L104.33-3.65Q104.03-3.3 103.66-2.9 103.28-2.5 102.83-2.1L102.83-2.1Q102.23-1.55 101.68-0.95L101.68-0.95Q101.38-0.65 100.88-0.65L100.88-0.65Q99.83-0.65 99.73-1.4L99.73-1.4Q99.68-2.2 99.66-2.73 99.63-3.25 99.63-3.45L99.63-3.45Q99.53-4.75 99.48-5.2L99.48-5.2Q99.43-5.65 99.03-5.65L99.03-5.65Q98.53-5.65 96.53-4.05L96.53-4.05Q93.83-1.9 91.58 0.75L91.58 0.75Q90.63 1.65 90.13 1.65ZM114.53 0.85L114.53 0.85Q112.58 0.85 112.58-0.9L112.58-0.9Q112.58-1 112.61-1.25 112.63-1.5 112.68-1.85L112.68-1.85Q113.18-3.9 114.71-5.83 116.23-7.75 118.23-9.2L118.23-9.2Q118.98-9.8 120.63-9.8L120.63-9.8Q121.58-9.8 122.31-9.53 123.03-9.25 123.33-8.7L123.33-8.7Q123.63-8.2 123.63-7.55L123.63-7.55Q123.63-7.45 123.61-7.25 123.58-7.05 123.53-6.8L123.53-6.8Q123.63-6.85 123.86-6.85 124.08-6.85 124.43-6.9L124.43-6.9Q124.78-6.95 125.11-7 125.43-7.05 125.78-7.05L125.78-7.05 125.98-7.05Q126.53-7.05 126.11-6.63 125.68-6.2 124.98-6.1L124.98-6.1 123.28-5.9Q122.78-4.5 121.56-3.1 120.33-1.7 118.86-0.68 117.38 0.35 116.08 0.65L116.08 0.65Q115.33 0.85 114.53 0.85ZM120.93-6.6L120.93-6.6Q121.23-6.6 121.66-6.63 122.08-6.65 122.63-6.7L122.63-6.7Q122.68-6.8 122.68-7.15L122.68-7.15Q122.68-8.05 121.93-8.4L121.93-8.4Q121.53-8.65 120.93-8.65L120.93-8.65Q120.18-8.65 119.41-8.18 118.63-7.7 117.78-6.95L117.78-6.95Q118.83-6.6 120.93-6.6ZM116.03-0.9L116.03-0.9Q116.53-0.9 117.46-1.38 118.38-1.85 119.38-2.65 120.38-3.45 121.18-4.35L121.18-4.35Q121.43-4.6 121.68-4.98 121.93-5.35 122.23-5.75L122.23-5.75 121.03-5.6Q118.23-5.2 116.03-5.15L116.03-5.15Q114.93-3.35 114.68-2.15L114.68-2.15Q114.63-1.5 115.03-1.2 115.43-0.9 116.03-0.9ZM138.53 3.2L138.53 3.2Q137.28 3.2 136.65 2.65 136.03 2.1 136.03 1.15L136.03 1.15Q136.03 0.25 136.58-0.8 137.13-1.85 138.13-2.75L138.13-2.75Q138.43-3 138.63-3.05L138.63-3.05Q138.78-3.05 138.88-2.95L138.88-2.95Q138.93-2.9 138.93-2.75L138.93-2.75Q138.93-2.4 138.48-1.95L138.48-1.95Q137.08-0.5 137.08 0.5L137.08 0.5Q137.08 1.05 137.58 1.5 138.08 1.95 138.73 1.9L138.73 1.9Q141.23 1.8 143.88 0.8 146.53-0.2 148.83-1.98 151.13-3.75 152.63-6.05L152.63-6.05Q153.73-7.65 153.73-8.85L153.73-8.85Q153.73-10.4 151.73-10.4L151.73-10.4Q151.38-10.4 150.93-10.33 150.48-10.25 149.93-10.15L149.93-10.15 147.43-9.6Q144.38-8.95 142.03-8.47 139.68-8 137.83-8L137.83-8Q135.68-8 134.5-8.68 133.33-9.35 133.33-11L133.33-11Q133.33-11.75 133.63-12.8L133.63-12.8Q134.63-16.1 138.98-19.8L138.98-19.8Q141.93-22.3 145.58-24.28 149.23-26.25 152.95-27.43 156.68-28.6 159.93-28.6L159.93-28.6Q162.43-28.6 163.9-27.5 165.38-26.4 165.38-24.5L165.38-24.5Q165.38-22.75 164.13-20.75L164.13-20.75Q163.78-20.25 163.53-20.25L163.53-20.25Q163.43-20.25 163.33-20.43 163.23-20.6 163.23-20.8L163.23-20.8Q163.23-20.85 163.25-20.98 163.28-21.1 163.33-21.3L163.33-21.3Q163.73-22.5 163.73-23.6L163.73-23.6Q163.73-25.3 162.55-26.15 161.38-27 159.18-26.8L159.18-26.8Q155.33-26.4 150.38-24.35L150.38-24.35Q147.03-22.95 144.05-21.05 141.08-19.15 138.95-17.03 136.83-14.9 136.03-12.75L136.03-12.75Q135.83-12.35 135.83-11.8L135.83-11.8Q135.83-9.8 139.78-9.8L139.78-9.8Q141.68-9.8 143.95-10.2 146.23-10.6 149.23-11.2L149.23-11.2 150.98-11.55Q151.88-11.7 152.73-11.7L152.73-11.7Q154.33-11.7 155.28-11.05 156.23-10.4 156.23-9.25L156.23-9.25Q156.23-8.2 155.33-6.75L155.33-6.75Q154.48-5.4 153.33-4.17 152.18-2.95 150.78-1.8L150.78-1.8Q147.93 0.5 144.68 1.85 141.43 3.2 138.53 3.2ZM158.32 1.8L158.32 1.8Q157.22 1.8 157.42-0.9L157.42-0.9Q157.52-1.5 157.85-2.8 158.17-4.1 158.67-5.68 159.17-7.25 159.62-8.5L159.62-8.5Q159.92-9.35 160.7-10.1 161.47-10.85 161.97-10.85L161.97-10.85Q162.27-10.85 162.27-10.45L162.27-10.45Q162.27-9.9 161.67-8.75L161.67-8.75Q160.92-7.35 160.47-6.38 160.02-5.4 159.75-4.42 159.47-3.45 159.17-2.05L159.17-2.05 159.17-1.6Q159.17 0 159.87-0.6L159.87-0.6Q161.17-1.65 162.57-3.08 163.97-4.5 165.22-5.95 166.47-7.4 167.22-8.5L167.22-8.5Q167.72-9.3 168.4-9.73 169.07-10.15 168.97-9.85L168.97-9.85Q168.92-9.4 168.15-8.2 167.37-7 166.25-5.53 165.12-4.05 163.95-2.7 162.77-1.35 161.87-0.6L161.87-0.6Q161.52-0.25 160.85 0.33 160.17 0.9 159.47 1.35 158.77 1.8 158.32 1.8ZM170.77 0.55L170.77 0.55Q169.72 0.55 168.92 0L168.92 0Q167.62-1 167.62-3L167.62-3Q167.62-5 169.02-7.25 170.42-9.5 173.27-11.4L173.27-11.4Q173.77-11.75 174.62-11.75L174.62-11.75Q175.72-11.75 176.6-11.15 177.47-10.55 177.27-9.6L177.27-9.6Q176.92-8.05 175.75-6.85 174.57-5.65 173-4.73 171.42-3.8 169.77-2.95L169.77-2.95Q169.72-2.8 169.7-2.65 169.67-2.5 169.67-2.35L169.67-2.35Q169.67-1.65 170.15-1.13 170.62-0.6 171.47-0.6L171.47-0.6Q172.12-0.6 172.57-0.8L172.57-0.8Q173.37-1.1 173.9-1.35 174.42-1.6 175.12-2.1 175.82-2.6 177.02-3.6L177.02-3.6Q177.57-4 177.67-4L177.67-4Q177.97-4 177.87-3.55L177.87-3.55Q177.37-2.75 176.15-1.8 174.92-0.85 173.45-0.15 171.97 0.55 170.77 0.55ZM170.07-4.3L170.07-4.3Q170.47-4.3 171.72-5.1 172.97-5.9 174.07-6.85L174.07-6.85Q175.97-8.6 175.97-9.55L175.97-9.55Q175.97-9.8 175.82-10L175.82-10Q175.67-10.25 175.37-10.25L175.37-10.25Q174.42-10.25 172.17-8L172.17-8Q170.62-6.5 170.07-4.3ZM178.32 4.65L178.32 4.65Q178.07 4.65 178.07 4.2L178.07 4.2Q178.07 4.1 178.09 3.93 178.12 3.75 178.17 3.55L178.17 3.55 180.32-1.85 182.87-8.15Q182.27-8.2 181.12-8.13 179.97-8.05 179.17-7.9L179.17-7.9Q178.87-7.85 178.69-7.83 178.52-7.8 178.42-7.8L178.42-7.8Q178.02-7.8 177.87-8.15L177.87-8.15Q177.92-8.45 178.42-8.7L178.42-8.7Q178.67-8.8 179.02-8.88 179.37-8.95 179.87-9.05L179.87-9.05Q180.42-9.15 180.84-9.2 181.27-9.25 181.47-9.3L181.47-9.3Q181.72-9.35 181.97-9.4 182.22-9.45 182.57-9.5L182.57-9.5Q182.87-9.55 183.22-9.6 183.57-9.65 183.97-9.75L183.97-9.75Q184.37-10.3 185.17-11.7 185.97-13.1 187.22-15.4L187.22-15.4Q188.22-17.25 188.84-18.32 189.47-19.4 189.72-19.75L189.72-19.75Q190.17-20.35 190.77-20.35L190.77-20.35Q191.07-20.35 191.07-20.1L191.07-20.1Q191.07-20.05 190.82-19.45L190.82-19.45Q190.52-18.95 189.82-17.6 189.12-16.25 188.32-14.65 187.52-13.05 186.87-11.65 186.22-10.25 185.97-9.6L185.97-9.6Q186.22-9.65 186.54-9.65 186.87-9.65 187.37-9.65L187.37-9.65Q187.92-9.65 188.39-9.63 188.87-9.6 189.22-9.55L189.22-9.55Q189.92-9.4 189.92-9.15L189.92-9.15Q189.92-9.05 189.47-8.8L189.47-8.8Q189.22-8.7 188.52-8.6 187.82-8.5 186.67-8.4L186.67-8.4Q186.37-8.4 186.02-8.38 185.67-8.35 185.27-8.3L185.27-8.3Q183.77-5.85 181.17-0.15L181.17-0.15Q180.22 1.75 179.72 2.8 179.22 3.85 179.12 4.05L179.12 4.05Q178.67 4.65 178.32 4.65Z" opacity="1" transform="matrix(1,0,0,1,0,0)" fill="#316357" class="slogan-text-1" data-fill-palette-color="quaternary" id="text-1"></path></svg></g></svg></g></svg></g></svg></g><g transform="matrix(1,0,0,1,58.38428719129794,0)"><svg viewBox="0 0 96.38986684456123 101.84950059791876" height="101.84950059791876" width="96.38986684456123"><g><svg xmlns="http://www.w3.org/2000/svg" xmlns:xlink="http://www.w3.org/1999/xlink" version="1.1" x="0" y="0" viewBox="14.752 11.692 73.18 77.32499999999999" enable-background="new 0 0 100 100" xml:space="preserve" height="101.84950059791876" width="96.38986684456123" class="icon-icon-0" data-fill-palette-color="quaternary" id="icon-0"><path fill="#316357" d="M61.64 58.881C53.716 68.232 45.556 68.834 45.596 69.401 42.729 47.609 56.578 31.586 56.578 31.586A48.5 48.5 0 0 0 49.349 40.69L49.573 40.319C46.204 37.463 44.399 28.727 44.399 28.727 45.192 39.042 48.05 42.939 48.05 42.939 48.306 42.452 48.747 41.698 49.091 41.122 46.164 46.009 44.342 51.057 43.278 55.964L43.353 55.578C41.449 49.884 34.877 45.39 34.877 45.39 40.114 50.785 42.551 60.006 42.551 60.006 42.577 59.803 42.633 59.465 42.701 59.07 40.172 75.208 45.284 89.017 45.284 89.017H52.716C49.199 83.241 47.126 77.627 46.077 72.316 46.176 72.754 46.247 73.004 46.247 73.004 54.498 69.195 61.64 58.881 61.64 58.881" data-fill-palette-color="quaternary"></path><path fill="#316357" d="M51.316 59.684S48.157 37.101 87.932 37.565C87.932 37.565 83.377 72.041 59.308 69.44 59.308 69.44 68.137 62.045 68.137 53.568 68.138 53.568 61.35 50.951 51.316 59.684" data-fill-palette-color="quaternary"></path><path fill="#316357" d="M34.543 51.682S16.482 55.426 14.752 23.3C14.752 23.3 42.821 25.15 41.995 44.714 41.995 44.714 35.56 37.981 28.718 38.429 28.719 38.429 26.965 44.047 34.543 51.682" data-fill-palette-color="quaternary"></path><path fill="#316357" d="M51.258 31.022S48.15 17.144 72.903 15.416C72.903 15.416 71.819 37.082 56.723 36.686 56.723 36.686 61.835 31.64 61.407 26.371 61.406 26.37 57.053 25.086 51.258 31.022" data-fill-palette-color="quaternary"></path><path fill="#316357" d="M41.5 31.083S31.734 27.63 40.246 11.692C40.246 11.692 53.193 20.743 47.108 29.903 47.108 29.903 45.974 24.798 42.556 23.022 42.556 23.022 40.08 25.212 41.5 31.083" data-fill-palette-color="quaternary"></path></svg></g></svg></g><g></g></svg></g></svg></g></svg></g></svg></g><defs></defs></svg><rect width="342.85155851775386" height="342.85155851775386" fill="none" stroke="none" visibility="hidden"></rect></g></svg></g></svg>